<mxfile host="app.diagrams.net" agent="Mozilla/5.0 (Windows NT 10.0; Win64; x64) AppleWebKit/537.36 (KHTML, like Gecko) Chrome/134.0.0.0 Safari/537.36" version="26.1.3" pages="2">
  <diagram name="Caso de uso" id="eI7B9AjP6pNZDAld_Fcq">
    <mxGraphModel dx="1687" dy="2077" grid="1" gridSize="10" guides="1" tooltips="1" connect="1" arrows="1" fold="1" page="1" pageScale="1" pageWidth="827" pageHeight="1169" math="0" shadow="0">
      <root>
        <mxCell id="0" />
        <mxCell id="1" parent="0" />
        <mxCell id="VDLVTOaSSbiSKGC9JEB4-6" style="edgeStyle=orthogonalEdgeStyle;rounded=0;orthogonalLoop=1;jettySize=auto;html=1;exitX=0.25;exitY=0.1;exitDx=0;exitDy=0;exitPerimeter=0;entryX=1;entryY=0.5;entryDx=0;entryDy=0;" edge="1" parent="1" source="VDLVTOaSSbiSKGC9JEB4-1" target="VDLVTOaSSbiSKGC9JEB4-3">
          <mxGeometry relative="1" as="geometry" />
        </mxCell>
        <mxCell id="VDLVTOaSSbiSKGC9JEB4-10" style="edgeStyle=orthogonalEdgeStyle;rounded=0;orthogonalLoop=1;jettySize=auto;html=1;exitX=0.5;exitY=0;exitDx=0;exitDy=0;exitPerimeter=0;" edge="1" parent="1" source="VDLVTOaSSbiSKGC9JEB4-1" target="VDLVTOaSSbiSKGC9JEB4-11">
          <mxGeometry relative="1" as="geometry">
            <mxPoint x="620" y="30" as="targetPoint" />
          </mxGeometry>
        </mxCell>
        <mxCell id="VDLVTOaSSbiSKGC9JEB4-22" style="edgeStyle=orthogonalEdgeStyle;rounded=0;orthogonalLoop=1;jettySize=auto;html=1;exitX=0.75;exitY=0.1;exitDx=0;exitDy=0;exitPerimeter=0;entryX=0;entryY=0.5;entryDx=0;entryDy=0;" edge="1" parent="1" source="VDLVTOaSSbiSKGC9JEB4-1" target="VDLVTOaSSbiSKGC9JEB4-21">
          <mxGeometry relative="1" as="geometry" />
        </mxCell>
        <mxCell id="dDlLMIYqswkXogRdT_j6-12" style="edgeStyle=orthogonalEdgeStyle;rounded=0;orthogonalLoop=1;jettySize=auto;html=1;exitX=0;exitY=0.3333333333333333;exitDx=0;exitDy=0;exitPerimeter=0;entryX=1;entryY=0.5;entryDx=0;entryDy=0;" edge="1" parent="1" source="VDLVTOaSSbiSKGC9JEB4-1" target="VDLVTOaSSbiSKGC9JEB4-5">
          <mxGeometry relative="1" as="geometry" />
        </mxCell>
        <mxCell id="dDlLMIYqswkXogRdT_j6-15" style="edgeStyle=orthogonalEdgeStyle;rounded=0;orthogonalLoop=1;jettySize=auto;html=1;exitX=1;exitY=0.3333333333333333;exitDx=0;exitDy=0;exitPerimeter=0;entryX=0;entryY=0.5;entryDx=0;entryDy=0;" edge="1" parent="1" source="VDLVTOaSSbiSKGC9JEB4-1" target="VDLVTOaSSbiSKGC9JEB4-46">
          <mxGeometry relative="1" as="geometry" />
        </mxCell>
        <mxCell id="VDLVTOaSSbiSKGC9JEB4-1" value="Funcionários" style="shape=umlActor;verticalLabelPosition=bottom;verticalAlign=top;html=1;outlineConnect=0;direction=east;" vertex="1" parent="1">
          <mxGeometry x="590" y="100" width="60" height="120" as="geometry" />
        </mxCell>
        <mxCell id="VDLVTOaSSbiSKGC9JEB4-3" value="Cadastrar produtos" style="ellipse;whiteSpace=wrap;html=1;" vertex="1" parent="1">
          <mxGeometry x="354" y="-80" width="120" height="80" as="geometry" />
        </mxCell>
        <mxCell id="VDLVTOaSSbiSKGC9JEB4-5" value="Vender produtos" style="ellipse;whiteSpace=wrap;html=1;" vertex="1" parent="1">
          <mxGeometry x="354" y="280" width="120" height="80" as="geometry" />
        </mxCell>
        <mxCell id="VDLVTOaSSbiSKGC9JEB4-11" value="Verificar integridade dos produtos" style="ellipse;whiteSpace=wrap;html=1;" vertex="1" parent="1">
          <mxGeometry x="560" y="-70" width="120" height="80" as="geometry" />
        </mxCell>
        <mxCell id="VDLVTOaSSbiSKGC9JEB4-41" style="edgeStyle=orthogonalEdgeStyle;rounded=0;orthogonalLoop=1;jettySize=auto;html=1;exitX=1;exitY=0.3333333333333333;exitDx=0;exitDy=0;exitPerimeter=0;entryX=0;entryY=0.5;entryDx=0;entryDy=0;" edge="1" parent="1" source="VDLVTOaSSbiSKGC9JEB4-12" target="VDLVTOaSSbiSKGC9JEB4-26">
          <mxGeometry relative="1" as="geometry" />
        </mxCell>
        <mxCell id="VDLVTOaSSbiSKGC9JEB4-42" style="edgeStyle=orthogonalEdgeStyle;rounded=0;orthogonalLoop=1;jettySize=auto;html=1;exitX=1;exitY=0.3333333333333333;exitDx=0;exitDy=0;exitPerimeter=0;entryX=0;entryY=0.5;entryDx=0;entryDy=0;" edge="1" parent="1" source="VDLVTOaSSbiSKGC9JEB4-12" target="VDLVTOaSSbiSKGC9JEB4-14">
          <mxGeometry relative="1" as="geometry" />
        </mxCell>
        <mxCell id="VDLVTOaSSbiSKGC9JEB4-43" style="edgeStyle=orthogonalEdgeStyle;rounded=0;orthogonalLoop=1;jettySize=auto;html=1;exitX=1;exitY=0.3333333333333333;exitDx=0;exitDy=0;exitPerimeter=0;entryX=0;entryY=0.5;entryDx=0;entryDy=0;" edge="1" parent="1" source="VDLVTOaSSbiSKGC9JEB4-12" target="VDLVTOaSSbiSKGC9JEB4-31">
          <mxGeometry relative="1" as="geometry">
            <mxPoint x="159.99999999999136" y="250" as="targetPoint" />
          </mxGeometry>
        </mxCell>
        <mxCell id="VDLVTOaSSbiSKGC9JEB4-53" style="edgeStyle=orthogonalEdgeStyle;rounded=0;orthogonalLoop=1;jettySize=auto;html=1;exitX=1;exitY=0.3333333333333333;exitDx=0;exitDy=0;exitPerimeter=0;entryX=0;entryY=0.5;entryDx=0;entryDy=0;" edge="1" parent="1" source="VDLVTOaSSbiSKGC9JEB4-12" target="VDLVTOaSSbiSKGC9JEB4-52">
          <mxGeometry relative="1" as="geometry" />
        </mxCell>
        <mxCell id="VDLVTOaSSbiSKGC9JEB4-56" style="edgeStyle=orthogonalEdgeStyle;rounded=0;orthogonalLoop=1;jettySize=auto;html=1;exitX=1;exitY=0.3333333333333333;exitDx=0;exitDy=0;exitPerimeter=0;entryX=0;entryY=0.5;entryDx=0;entryDy=0;" edge="1" parent="1" source="VDLVTOaSSbiSKGC9JEB4-12" target="VDLVTOaSSbiSKGC9JEB4-55">
          <mxGeometry relative="1" as="geometry" />
        </mxCell>
        <mxCell id="VDLVTOaSSbiSKGC9JEB4-12" value="Cliente" style="shape=umlActor;verticalLabelPosition=bottom;verticalAlign=top;html=1;outlineConnect=0;" vertex="1" parent="1">
          <mxGeometry y="80" width="60" height="120" as="geometry" />
        </mxCell>
        <mxCell id="VDLVTOaSSbiSKGC9JEB4-14" value="Selecionar produtos" style="ellipse;whiteSpace=wrap;html=1;" vertex="1" parent="1">
          <mxGeometry x="160" y="80" width="120" height="80" as="geometry" />
        </mxCell>
        <mxCell id="VDLVTOaSSbiSKGC9JEB4-21" value="Verificar estoque da farmácia" style="ellipse;whiteSpace=wrap;html=1;" vertex="1" parent="1">
          <mxGeometry x="760" y="-70" width="120" height="80" as="geometry" />
        </mxCell>
        <mxCell id="VDLVTOaSSbiSKGC9JEB4-26" value="Analisar produtos" style="ellipse;whiteSpace=wrap;html=1;" vertex="1" parent="1">
          <mxGeometry x="160" y="-50" width="120" height="80" as="geometry" />
        </mxCell>
        <mxCell id="VDLVTOaSSbiSKGC9JEB4-31" value="Mostrar a receita" style="ellipse;whiteSpace=wrap;html=1;" vertex="1" parent="1">
          <mxGeometry x="160" y="210" width="120" height="80" as="geometry" />
        </mxCell>
        <mxCell id="VDLVTOaSSbiSKGC9JEB4-46" value="Verificar se a receita é falsa" style="ellipse;whiteSpace=wrap;html=1;" vertex="1" parent="1">
          <mxGeometry x="760" y="280" width="120" height="80" as="geometry" />
        </mxCell>
        <mxCell id="VDLVTOaSSbiSKGC9JEB4-52" value="Receber receita" style="ellipse;whiteSpace=wrap;html=1;" vertex="1" parent="1">
          <mxGeometry x="160" y="-180" width="120" height="80" as="geometry" />
        </mxCell>
        <mxCell id="VDLVTOaSSbiSKGC9JEB4-55" value="Comprar produtos" style="ellipse;whiteSpace=wrap;html=1;" vertex="1" parent="1">
          <mxGeometry x="160" y="340" width="120" height="80" as="geometry" />
        </mxCell>
        <mxCell id="dDlLMIYqswkXogRdT_j6-18" style="edgeStyle=orthogonalEdgeStyle;rounded=0;orthogonalLoop=1;jettySize=auto;html=1;exitX=0;exitY=0.3333333333333333;exitDx=0;exitDy=0;exitPerimeter=0;" edge="1" parent="1" source="dDlLMIYqswkXogRdT_j6-17" target="dDlLMIYqswkXogRdT_j6-19">
          <mxGeometry relative="1" as="geometry">
            <mxPoint x="950" y="139.47058823529414" as="targetPoint" />
          </mxGeometry>
        </mxCell>
        <mxCell id="dDlLMIYqswkXogRdT_j6-17" value="Fornecedor" style="shape=umlActor;verticalLabelPosition=bottom;verticalAlign=top;html=1;outlineConnect=0;" vertex="1" parent="1">
          <mxGeometry x="1100" y="100" width="60" height="120" as="geometry" />
        </mxCell>
        <mxCell id="dDlLMIYqswkXogRdT_j6-19" value="Reabastecer estoque" style="ellipse;whiteSpace=wrap;html=1;" vertex="1" parent="1">
          <mxGeometry x="890" y="99.47058823529414" width="120" height="80" as="geometry" />
        </mxCell>
        <mxCell id="dDlLMIYqswkXogRdT_j6-23" style="edgeStyle=orthogonalEdgeStyle;rounded=0;orthogonalLoop=1;jettySize=auto;html=1;exitX=0;exitY=0.3333333333333333;exitDx=0;exitDy=0;exitPerimeter=0;" edge="1" parent="1" source="dDlLMIYqswkXogRdT_j6-21" target="dDlLMIYqswkXogRdT_j6-24">
          <mxGeometry relative="1" as="geometry">
            <mxPoint x="380" y="-270.52941176470586" as="targetPoint" />
          </mxGeometry>
        </mxCell>
        <mxCell id="dDlLMIYqswkXogRdT_j6-25" style="edgeStyle=orthogonalEdgeStyle;rounded=0;orthogonalLoop=1;jettySize=auto;html=1;exitX=1;exitY=0.3333333333333333;exitDx=0;exitDy=0;exitPerimeter=0;" edge="1" parent="1" source="dDlLMIYqswkXogRdT_j6-21" target="dDlLMIYqswkXogRdT_j6-26">
          <mxGeometry relative="1" as="geometry">
            <mxPoint x="710" y="-270.52941176470586" as="targetPoint" />
          </mxGeometry>
        </mxCell>
        <mxCell id="dDlLMIYqswkXogRdT_j6-21" value="Sistema" style="shape=umlActor;verticalLabelPosition=bottom;verticalAlign=top;html=1;outlineConnect=0;" vertex="1" parent="1">
          <mxGeometry x="590" y="-310" width="60" height="120" as="geometry" />
        </mxCell>
        <mxCell id="dDlLMIYqswkXogRdT_j6-24" value="Armazenar número de produtos vendidos" style="ellipse;whiteSpace=wrap;html=1;" vertex="1" parent="1">
          <mxGeometry x="420" y="-309.9994117647059" width="120" height="80" as="geometry" />
        </mxCell>
        <mxCell id="dDlLMIYqswkXogRdT_j6-26" value="Armazenar número de produtos no estoque" style="ellipse;whiteSpace=wrap;html=1;" vertex="1" parent="1">
          <mxGeometry x="700" y="-309.9994117647059" width="120" height="80" as="geometry" />
        </mxCell>
      </root>
    </mxGraphModel>
  </diagram>
  <diagram id="-bXrI49aHGVClE4TX5Sl" name="Classes">
    <mxGraphModel dx="1434" dy="772" grid="1" gridSize="10" guides="1" tooltips="1" connect="1" arrows="1" fold="1" page="1" pageScale="1" pageWidth="827" pageHeight="1169" math="0" shadow="0">
      <root>
        <mxCell id="0" />
        <mxCell id="1" parent="0" />
        <mxCell id="VTx60j6ACI41Z-inCDod-9" value="Médico" style="swimlane;fontStyle=1;align=center;verticalAlign=top;childLayout=stackLayout;horizontal=1;startSize=26;horizontalStack=0;resizeParent=1;resizeParentMax=0;resizeLast=0;collapsible=1;marginBottom=0;whiteSpace=wrap;html=1;" vertex="1" parent="1">
          <mxGeometry x="400" y="80" width="160" height="86" as="geometry" />
        </mxCell>
        <mxCell id="VTx60j6ACI41Z-inCDod-10" value="VerificarSaúdePaciente" style="text;strokeColor=none;fillColor=none;align=left;verticalAlign=top;spacingLeft=4;spacingRight=4;overflow=hidden;rotatable=0;points=[[0,0.5],[1,0.5]];portConstraint=eastwest;whiteSpace=wrap;html=1;" vertex="1" parent="VTx60j6ACI41Z-inCDod-9">
          <mxGeometry y="26" width="160" height="26" as="geometry" />
        </mxCell>
        <mxCell id="VTx60j6ACI41Z-inCDod-11" value="" style="line;strokeWidth=1;fillColor=none;align=left;verticalAlign=middle;spacingTop=-1;spacingLeft=3;spacingRight=3;rotatable=0;labelPosition=right;points=[];portConstraint=eastwest;strokeColor=inherit;" vertex="1" parent="VTx60j6ACI41Z-inCDod-9">
          <mxGeometry y="52" width="160" height="8" as="geometry" />
        </mxCell>
        <mxCell id="VTx60j6ACI41Z-inCDod-12" value="PassarReceita" style="text;strokeColor=none;fillColor=none;align=left;verticalAlign=top;spacingLeft=4;spacingRight=4;overflow=hidden;rotatable=0;points=[[0,0.5],[1,0.5]];portConstraint=eastwest;whiteSpace=wrap;html=1;" vertex="1" parent="VTx60j6ACI41Z-inCDod-9">
          <mxGeometry y="60" width="160" height="26" as="geometry" />
        </mxCell>
        <mxCell id="VTx60j6ACI41Z-inCDod-14" value="Paciente/Cliente" style="swimlane;fontStyle=1;align=center;verticalAlign=top;childLayout=stackLayout;horizontal=1;startSize=26;horizontalStack=0;resizeParent=1;resizeParentMax=0;resizeLast=0;collapsible=1;marginBottom=0;whiteSpace=wrap;html=1;" vertex="1" parent="1">
          <mxGeometry x="120" y="80" width="160" height="86" as="geometry" />
        </mxCell>
        <mxCell id="VTx60j6ACI41Z-inCDod-15" value="ConsultarMédico" style="text;strokeColor=none;fillColor=none;align=left;verticalAlign=top;spacingLeft=4;spacingRight=4;overflow=hidden;rotatable=0;points=[[0,0.5],[1,0.5]];portConstraint=eastwest;whiteSpace=wrap;html=1;" vertex="1" parent="VTx60j6ACI41Z-inCDod-14">
          <mxGeometry y="26" width="160" height="26" as="geometry" />
        </mxCell>
        <mxCell id="VTx60j6ACI41Z-inCDod-16" value="" style="line;strokeWidth=1;fillColor=none;align=left;verticalAlign=middle;spacingTop=-1;spacingLeft=3;spacingRight=3;rotatable=0;labelPosition=right;points=[];portConstraint=eastwest;strokeColor=inherit;" vertex="1" parent="VTx60j6ACI41Z-inCDod-14">
          <mxGeometry y="52" width="160" height="8" as="geometry" />
        </mxCell>
        <mxCell id="VTx60j6ACI41Z-inCDod-17" value="ReceberReceita" style="text;strokeColor=none;fillColor=none;align=left;verticalAlign=top;spacingLeft=4;spacingRight=4;overflow=hidden;rotatable=0;points=[[0,0.5],[1,0.5]];portConstraint=eastwest;whiteSpace=wrap;html=1;" vertex="1" parent="VTx60j6ACI41Z-inCDod-14">
          <mxGeometry y="60" width="160" height="26" as="geometry" />
        </mxCell>
        <mxCell id="VTx60j6ACI41Z-inCDod-20" style="edgeStyle=orthogonalEdgeStyle;rounded=0;orthogonalLoop=1;jettySize=auto;html=1;exitX=1;exitY=0.5;exitDx=0;exitDy=0;entryX=0;entryY=0.5;entryDx=0;entryDy=0;" edge="1" parent="1" source="VTx60j6ACI41Z-inCDod-15" target="VTx60j6ACI41Z-inCDod-10">
          <mxGeometry relative="1" as="geometry" />
        </mxCell>
      </root>
    </mxGraphModel>
  </diagram>
</mxfile>
